<?xml version="1.0" encoding="utf-8"?>
<svg width="32" height="16" viewBox="0 0 256 128" xmlns="http://www.w3.org/2000/svg">
  <path d="M 72.283 37.378 L 72.283 88.568 L 61.943 88.568 L 61.943 37.378 L 72.283 37.378 ZM 116.75 37.378 L 116.75 88.568 L 106.42 88.568 L 91.3 54.998 L 91.3 88.568 L 80.96 88.568 L 80.96 37.378 L 91.3 37.378 L 106.45 70.988 L 106.45 37.378 L 116.75 37.378 ZM 151.456 59.108 L 151.456 67.688 L 135.386 67.688 L 135.386 88.568 L 125.046 88.568 L 125.046 37.378 L 153.386 37.378 L 153.386 45.998 L 135.386 45.998 L 135.386 59.108 L 151.456 59.108 ZM 195.328 58.828 L 195.328 67.578 C 195.328 74.445 193.704 79.778 190.458 83.578 C 187.211 87.371 182.704 89.268 176.938 89.268 C 171.198 89.268 166.688 87.388 163.408 83.628 C 160.121 79.868 158.454 74.601 158.408 67.828 L 158.408 59.068 C 158.408 52.041 160.038 46.551 163.298 42.598 C 166.558 38.651 171.081 36.678 176.868 36.678 C 182.561 36.678 187.051 38.618 190.338 42.498 C 193.618 46.378 195.281 51.821 195.328 58.828 Z M 184.958 67.898 L 184.958 58.998 C 184.958 54.385 184.301 50.951 182.988 48.698 C 181.674 46.451 179.634 45.328 176.868 45.328 C 174.128 45.328 172.101 46.411 170.788 48.578 C 169.474 50.745 168.794 54.045 168.748 58.478 L 168.748 67.578 C 168.748 72.058 169.414 75.358 170.748 77.478 C 172.088 79.598 174.151 80.658 176.938 80.658 C 179.631 80.658 181.634 79.621 182.948 77.548 C 184.261 75.475 184.931 72.258 184.958 67.898 Z" transform="matrix(1, 0, 0, 1, 0, 0)" style="fill: rgb(255, 251, 251); white-space: pre;"/>
</svg>