<?xml version="1.0" encoding="utf-8"?>
<svg width="32" height="16" viewBox="0 0 256 128" xmlns="http://www.w3.org/2000/svg">
  <path d="M 99.745 59.108 L 99.745 67.688 L 83.675 67.688 L 83.675 88.568 L 73.335 88.568 L 73.335 37.378 L 101.675 37.378 L 101.675 45.998 L 83.675 45.998 L 83.675 59.108 L 99.745 59.108 ZM 143.617 58.828 L 143.617 67.578 C 143.617 74.445 141.994 79.778 138.747 83.578 C 135.501 87.371 130.994 89.268 125.227 89.268 C 119.487 89.268 114.977 87.388 111.697 83.628 C 108.411 79.868 106.744 74.601 106.697 67.828 L 106.697 59.068 C 106.697 52.041 108.327 46.551 111.587 42.598 C 114.847 38.651 119.371 36.678 125.157 36.678 C 130.851 36.678 135.341 38.618 138.627 42.498 C 141.907 46.378 143.571 51.821 143.617 58.828 Z M 133.247 67.898 L 133.247 58.998 C 133.247 54.385 132.591 50.951 131.277 48.698 C 129.964 46.451 127.924 45.328 125.157 45.328 C 122.417 45.328 120.391 46.411 119.077 48.578 C 117.764 50.745 117.084 54.045 117.037 58.478 L 117.037 67.578 C 117.037 72.058 117.704 75.358 119.037 77.478 C 120.377 79.598 122.441 80.658 125.227 80.658 C 127.921 80.658 129.924 79.621 131.237 77.548 C 132.551 75.475 133.221 72.258 133.247 67.898 ZM 174.24 88.568 L 166.54 69.868 L 161.4 69.868 L 161.4 88.568 L 151.07 88.568 L 151.07 37.378 L 167.56 37.378 C 172.74 37.378 176.74 38.721 179.56 41.408 C 182.387 44.088 183.8 47.901 183.8 52.848 C 183.8 59.648 181.327 64.405 176.38 67.118 L 185.35 88.078 L 185.35 88.568 L 174.24 88.568 Z M 161.4 45.998 L 161.4 61.248 L 167.28 61.248 C 169.34 61.248 170.887 60.565 171.92 59.198 C 172.947 57.825 173.46 55.988 173.46 53.688 C 173.46 48.561 171.457 45.998 167.45 45.998 L 161.4 45.998 Z" transform="matrix(1, 0, 0, 1, 0, 0)" style="fill: rgb(255, 251, 251); white-space: pre;"/>
</svg>