<?xml version="1.0" encoding="utf-8"?>
<svg width="32" height="16" viewBox="0 0 256 128" xmlns="http://www.w3.org/2000/svg">
  <path d="M 69.174 37.386 L 69.174 88.576 L 58.834 88.576 L 58.834 37.386 L 69.174 37.386 ZM 109.991 37.386 L 109.991 46.006 L 97.331 46.006 L 97.331 88.576 L 86.961 88.576 L 86.961 46.006 L 74.511 46.006 L 74.511 37.386 L 109.991 37.386 ZM 142.365 58.096 L 142.365 66.426 L 126.265 66.426 L 126.265 79.996 L 145.315 79.996 L 145.315 88.576 L 115.925 88.576 L 115.925 37.386 L 145.245 37.386 L 145.245 46.006 L 126.265 46.006 L 126.265 58.096 L 142.365 58.096 ZM 151.257 37.386 L 164.757 37.386 L 174.427 74.406 L 184.057 37.386 L 197.557 37.386 L 197.557 88.576 L 187.187 88.576 L 187.187 74.726 L 188.137 53.386 L 177.907 88.576 L 170.877 88.576 L 160.647 53.386 L 161.597 74.726 L 161.597 88.576 L 151.257 88.576 L 151.257 37.386 Z" transform="matrix(1, 0, 0, 1, 0, 0)" style="fill: rgb(255, 251, 251); white-space: pre;"/>
</svg>