<?xml version="1.0" encoding="utf-8"?>
<svg width="48" height="16" viewBox="0 0 384 128" xmlns="http://www.w3.org/2000/svg">
  <path d="M 73.512 88.568 L 64.162 68.808 L 60.082 73.938 L 60.082 88.568 L 49.742 88.568 L 49.742 37.378 L 60.082 37.378 L 60.082 59.708 L 63.352 54.188 L 72.882 37.378 L 85.532 37.378 L 70.872 59.878 L 85.782 88.568 L 73.512 88.568 ZM 116.014 58.088 L 116.014 66.418 L 99.914 66.418 L 99.914 79.988 L 118.964 79.988 L 118.964 88.568 L 89.574 88.568 L 89.574 37.378 L 118.894 37.378 L 118.894 45.998 L 99.914 45.998 L 99.914 58.088 L 116.014 58.088 ZM 132.606 37.378 L 140.346 60.368 L 148.046 37.378 L 159.296 37.378 L 145.586 70.008 L 145.586 88.568 L 135.106 88.568 L 135.106 70.008 L 121.356 37.378 L 132.606 37.378 ZM 191.812 37.378 L 197.822 69.548 L 202.672 37.378 L 212.902 37.378 L 203.802 88.568 L 193.432 88.568 L 187.452 58.408 L 181.542 88.568 L 171.142 88.568 L 162.002 37.378 L 172.302 37.378 L 177.112 69.518 L 183.132 37.378 L 191.812 37.378 ZM 254.532 58.828 L 254.532 67.578 C 254.532 74.445 252.909 79.778 249.662 83.578 C 246.415 87.371 241.909 89.268 236.142 89.268 C 230.402 89.268 225.892 87.388 222.612 83.628 C 219.325 79.868 217.659 74.601 217.612 67.828 L 217.612 59.068 C 217.612 52.041 219.242 46.551 222.502 42.598 C 225.762 38.651 230.285 36.678 236.072 36.678 C 241.765 36.678 246.255 38.618 249.542 42.498 C 252.822 46.378 254.485 51.821 254.532 58.828 Z M 244.162 67.898 L 244.162 58.998 C 244.162 54.385 243.505 50.951 242.192 48.698 C 240.879 46.451 238.839 45.328 236.072 45.328 C 233.332 45.328 231.305 46.411 229.992 48.578 C 228.679 50.745 227.999 54.045 227.952 58.478 L 227.952 67.578 C 227.952 72.058 228.619 75.358 229.952 77.478 C 231.292 79.598 233.355 80.658 236.142 80.658 C 238.835 80.658 240.839 79.621 242.152 77.548 C 243.465 75.475 244.135 72.258 244.162 67.898 ZM 285.155 88.568 L 277.455 69.868 L 272.315 69.868 L 272.315 88.568 L 261.985 88.568 L 261.985 37.378 L 278.475 37.378 C 283.655 37.378 287.655 38.721 290.475 41.408 C 293.302 44.088 294.715 47.901 294.715 52.848 C 294.715 59.648 292.242 64.405 287.295 67.118 L 296.265 88.078 L 296.265 88.568 L 285.155 88.568 Z M 272.315 45.998 L 272.315 61.248 L 278.195 61.248 C 280.255 61.248 281.802 60.565 282.835 59.198 C 283.862 57.825 284.375 55.988 284.375 53.688 C 284.375 48.561 282.372 45.998 278.365 45.998 L 272.315 45.998 ZM 315.072 88.568 L 301.812 88.568 L 301.812 37.378 L 315.352 37.378 C 321.326 37.378 326.089 39.278 329.642 43.078 C 333.196 46.871 335.006 52.075 335.072 58.688 L 335.072 66.978 C 335.072 73.705 333.296 78.985 329.742 82.818 C 326.196 86.651 321.306 88.568 315.072 88.568 Z M 315.912 45.998 L 312.152 45.998 L 312.152 79.988 L 315.242 79.988 C 318.689 79.988 321.116 79.081 322.522 77.268 C 323.929 75.448 324.669 72.311 324.742 67.858 L 324.742 58.968 C 324.742 54.188 324.072 50.855 322.732 48.968 C 321.399 47.081 319.126 46.091 315.912 45.998 Z" transform="matrix(1, 0, 0, 1, 0, 0)" style="fill: rgb(255, 251, 251); white-space: pre;"/>
</svg>