<?xml version="1.0" encoding="utf-8"?>
<svg width="32" height="16" viewBox="0 0 256 128" xmlns="http://www.w3.org/2000/svg">
  <path d="M 55.682 75.146 C 55.682 73.059 55.149 71.483 54.082 70.416 C 53.022 69.349 51.085 68.243 48.272 67.096 C 43.139 65.149 39.445 62.869 37.192 60.256 C 34.945 57.643 33.822 54.556 33.822 50.996 C 33.822 46.683 35.352 43.219 38.412 40.606 C 41.465 37.993 45.349 36.686 50.062 36.686 C 53.202 36.686 56.002 37.349 58.462 38.676 C 60.922 39.996 62.815 41.863 64.142 44.276 C 65.469 46.689 66.132 49.433 66.132 52.506 L 55.832 52.506 C 55.832 50.113 55.322 48.289 54.302 47.036 C 53.282 45.783 51.809 45.156 49.882 45.156 C 48.082 45.156 46.675 45.689 45.662 46.756 C 44.655 47.823 44.152 49.259 44.152 51.066 C 44.152 52.473 44.715 53.743 45.842 54.876 C 46.969 56.016 48.962 57.196 51.822 58.416 C 56.815 60.216 60.442 62.429 62.702 65.056 C 64.962 67.683 66.092 71.023 66.092 75.076 C 66.092 79.529 64.675 83.009 61.842 85.516 C 59.002 88.023 55.145 89.276 50.272 89.276 C 46.965 89.276 43.955 88.596 41.242 87.236 C 38.522 85.876 36.392 83.933 34.852 81.406 C 33.319 78.873 32.552 75.883 32.552 72.436 L 42.922 72.436 C 42.922 75.389 43.499 77.536 44.652 78.876 C 45.799 80.209 47.672 80.876 50.272 80.876 C 53.879 80.876 55.682 78.966 55.682 75.146 ZM 99.385 58.096 L 99.385 66.426 L 83.285 66.426 L 83.285 79.996 L 102.335 79.996 L 102.335 88.576 L 72.945 88.576 L 72.945 37.386 L 102.265 37.386 L 102.265 46.006 L 83.285 46.006 L 83.285 58.096 L 99.385 58.096 ZM 142.14 37.386 L 142.14 46.006 L 129.48 46.006 L 129.48 88.576 L 119.11 88.576 L 119.11 46.006 L 106.66 46.006 L 106.66 37.386 L 142.14 37.386 ZM 171.034 37.386 L 181.374 37.386 L 181.374 72.826 C 181.327 78.146 179.86 82.219 176.974 85.046 C 174.094 87.866 169.957 89.276 164.564 89.276 C 159.084 89.276 154.894 87.846 151.994 84.986 C 149.1 82.126 147.654 77.989 147.654 72.576 L 147.654 37.386 L 158.064 37.386 L 158.064 72.616 C 158.064 75.523 158.53 77.596 159.464 78.836 C 160.404 80.076 162.104 80.696 164.564 80.696 C 167.024 80.696 168.71 80.083 169.624 78.856 C 170.544 77.623 171.014 75.599 171.034 72.786 L 171.034 37.386 ZM 206.437 70.576 L 199.547 70.576 L 199.547 88.576 L 189.207 88.576 L 189.207 37.386 L 206.647 37.386 C 211.707 37.386 215.743 38.956 218.757 42.096 C 221.77 45.236 223.277 49.316 223.277 54.336 C 223.277 59.349 221.787 63.309 218.807 66.216 C 215.833 69.123 211.71 70.576 206.437 70.576 Z M 199.547 46.006 L 199.547 61.966 L 206.647 61.966 C 208.613 61.966 210.137 61.319 211.217 60.026 C 212.297 58.739 212.837 56.866 212.837 54.406 C 212.837 51.853 212.287 49.819 211.187 48.306 C 210.08 46.793 208.603 46.026 206.757 46.006 L 199.547 46.006 Z" transform="matrix(1, 0, 0, 1, 0, 0)" style="fill: rgb(255, 251, 251); white-space: pre;"/>
</svg>