<?xml version="1.0" encoding="utf-8"?>
<svg width="48" height="16" viewBox="0 0 384 128" xmlns="http://www.w3.org/2000/svg">
  <path d="M 59.558 37.386 L 59.558 46.006 L 46.898 46.006 L 46.898 88.576 L 36.528 88.576 L 36.528 46.006 L 24.078 46.006 L 24.078 37.386 L 59.558 37.386 ZM 91.932 58.096 L 91.932 66.426 L 75.832 66.426 L 75.832 79.996 L 94.882 79.996 L 94.882 88.576 L 65.492 88.576 L 65.492 37.386 L 94.812 37.386 L 94.812 46.006 L 75.832 46.006 L 75.832 58.096 L 91.932 58.096 ZM 128.004 88.576 L 125.264 78.096 L 111.164 78.096 L 108.424 88.576 L 97.484 88.576 L 113.484 37.386 L 122.944 37.386 L 139.044 88.576 L 128.004 88.576 Z M 118.194 51.236 L 113.414 69.486 L 122.974 69.486 L 118.194 51.236 ZM 167.03 88.576 L 159.33 69.876 L 154.19 69.876 L 154.19 88.576 L 143.86 88.576 L 143.86 37.386 L 160.35 37.386 C 165.53 37.386 169.53 38.729 172.35 41.416 C 175.177 44.096 176.59 47.909 176.59 52.856 C 176.59 59.656 174.117 64.413 169.17 67.126 L 178.14 88.086 L 178.14 88.576 L 167.03 88.576 Z M 154.19 46.006 L 154.19 61.256 L 160.07 61.256 C 162.13 61.256 163.677 60.573 164.71 59.206 C 165.737 57.833 166.25 55.996 166.25 53.696 C 166.25 48.569 164.247 46.006 160.24 46.006 L 154.19 46.006 ZM 196.947 88.576 L 183.687 88.576 L 183.687 37.386 L 197.227 37.386 C 203.2 37.386 207.964 39.286 211.517 43.086 C 215.07 46.879 216.88 52.083 216.947 58.696 L 216.947 66.986 C 216.947 73.713 215.17 78.993 211.617 82.826 C 208.07 86.659 203.18 88.576 196.947 88.576 Z M 197.787 46.006 L 194.027 46.006 L 194.027 79.996 L 197.117 79.996 C 200.564 79.996 202.99 79.089 204.397 77.276 C 205.804 75.456 206.544 72.319 206.617 67.866 L 206.617 58.976 C 206.617 54.196 205.947 50.863 204.607 48.976 C 203.274 47.089 201 46.099 197.787 46.006 ZM 260.403 58.836 L 260.403 67.586 C 260.403 74.453 258.78 79.786 255.533 83.586 C 252.286 87.379 247.78 89.276 242.013 89.276 C 236.273 89.276 231.763 87.396 228.483 83.636 C 225.196 79.876 223.53 74.609 223.483 67.836 L 223.483 59.076 C 223.483 52.049 225.113 46.559 228.373 42.606 C 231.633 38.659 236.156 36.686 241.943 36.686 C 247.636 36.686 252.126 38.626 255.413 42.506 C 258.693 46.386 260.356 51.829 260.403 58.836 Z M 250.033 67.906 L 250.033 59.006 C 250.033 54.393 249.376 50.959 248.063 48.706 C 246.75 46.459 244.71 45.336 241.943 45.336 C 239.203 45.336 237.176 46.419 235.863 48.586 C 234.55 50.753 233.87 54.053 233.823 58.486 L 233.823 67.586 C 233.823 72.066 234.49 75.366 235.823 77.486 C 237.163 79.606 239.226 80.666 242.013 80.666 C 244.706 80.666 246.71 79.629 248.023 77.556 C 249.336 75.483 250.006 72.266 250.033 67.906 ZM 295.066 37.386 L 301.076 69.556 L 305.926 37.386 L 316.156 37.386 L 307.056 88.576 L 296.686 88.576 L 290.706 58.416 L 284.796 88.576 L 274.396 88.576 L 265.256 37.386 L 275.556 37.386 L 280.366 69.526 L 286.386 37.386 L 295.066 37.386 ZM 357.536 37.386 L 357.536 88.576 L 347.206 88.576 L 332.086 55.006 L 332.086 88.576 L 321.746 88.576 L 321.746 37.386 L 332.086 37.386 L 347.236 70.996 L 347.236 37.386 L 357.536 37.386 Z" transform="matrix(1, 0, 0, 1, 0, 0)" style="fill: rgb(255, 251, 251); white-space: pre;"/>
</svg>