<?xml version="1.0" encoding="utf-8"?>
<svg width="48" height="16" viewBox="0 0 384 128" xmlns="http://www.w3.org/2000/svg">
  <path d="M 80.26815032958984 66.393798828125 L 64.61385345458984 66.393798828125 L 64.61385345458984 79.587158203125 L 83.13924407958984 79.587158203125 L 83.13924407958984 87.927001953125 L 54.565025329589844 87.927001953125 L 54.565025329589844 38.161376953125 L 83.07088470458984 38.161376953125 L 83.07088470458984 46.535400390625 L 64.61385345458984 46.535400390625 L 64.61385345458984 58.293212890625 L 80.26815032958984 58.293212890625 Z M 123.70369720458984 87.927001953125 L 113.65486907958984 87.927001953125 L 98.95760345458984 55.285400390625 L 98.95760345458984 87.927001953125 L 88.90877532958984 87.927001953125 L 88.90877532958984 38.161376953125 L 98.95760345458984 38.161376953125 L 113.68904876708984 70.837158203125 L 113.68904876708984 38.161376953125 L 123.70369720458984 38.161376953125 Z M 131.77596282958984 87.927001953125 L 131.77596282958984 38.161376953125 L 144.93514251708984 38.161376953125 Q 153.65096282958984 38.161376953125 158.82918548583984 43.698486328125 Q 164.00740814208984 49.235595703125 164.10994720458984 58.874267578125 L 164.10994720458984 66.940673828125 Q 164.10994720458984 76.750244140625 158.93172454833984 82.338623046875 Q 153.75350189208984 87.927001953125 144.66170501708984 87.927001953125 Z M 141.82479095458984 46.535400390625 L 141.82479095458984 79.587158203125 L 144.83260345458984 79.587158203125 Q 149.85701751708984 79.587158203125 151.90779876708984 76.938232421875 Q 153.95858001708984 74.289306640625 154.06111907958984 67.795166015625 L 154.06111907958984 59.147705078125 Q 154.06111907958984 52.175048828125 152.11287689208984 49.423583984375 Q 150.16463470458984 46.672119140625 145.48201751708984 46.535400390625 Z M 208.47616577148438 74.870361328125 Q 208.47616577148438 71.828369140625 206.92098999023438 70.273193359375 Q 205.36581420898438 68.718017578125 201.26425170898438 67.043212890625 Q 193.77890014648438 64.206298828125 190.49765014648438 60.395263671875 Q 187.21640014648438 56.584228515625 187.21640014648438 51.388916015625 Q 187.21640014648438 45.099853515625 191.67684936523438 41.288818359375 Q 196.13729858398438 37.477783203125 203.00741577148438 37.477783203125 Q 207.58749389648438 37.477783203125 211.17636108398438 39.408935546875 Q 214.76522827148438 41.340087890625 216.69638061523438 44.860595703125 Q 218.62753295898438 48.381103515625 218.62753295898438 52.858642578125 L 208.61288452148438 52.858642578125 Q 208.61288452148438 49.372314453125 207.12606811523438 47.543701171875 Q 205.63925170898438 45.715087890625 202.83651733398438 45.715087890625 Q 200.20468139648438 45.715087890625 198.73495483398438 47.270263671875 Q 197.26522827148438 48.825439453125 197.26522827148438 51.457275390625 Q 197.26522827148438 53.508056640625 198.90585327148438 55.165771484375 Q 200.54647827148438 56.823486328125 204.71640014648438 58.600830078125 Q 211.99667358398438 61.232666015625 215.29501342773438 65.060791015625 Q 218.59335327148438 68.888916015625 218.59335327148438 74.802001953125 Q 218.59335327148438 81.296142578125 214.45761108398438 84.953369140625 Q 210.32186889648438 88.610595703125 203.21249389648438 88.610595703125 Q 198.39315795898438 88.610595703125 194.42831420898438 86.628173828125 Q 190.46347045898438 84.645751953125 188.22470092773438 80.954345703125 Q 185.98593139648438 77.262939453125 185.98593139648438 72.238525390625 L 196.06893920898438 72.238525390625 Q 196.06893920898438 76.545166015625 197.74374389648438 78.493408203125 Q 199.41854858398438 80.441650390625 203.21249389648438 80.441650390625 Q 208.47616577148438 80.441650390625 208.47616577148438 74.870361328125 Z M 257.4839782714844 46.535400390625 L 245.17929077148438 46.535400390625 L 245.17929077148438 87.927001953125 L 235.09628295898438 87.927001953125 L 235.09628295898438 46.535400390625 L 222.99667358398438 46.535400390625 L 222.99667358398438 38.161376953125 L 257.4839782714844 38.161376953125 Z M 288.9634704589844 66.393798828125 L 273.3091735839844 66.393798828125 L 273.3091735839844 79.587158203125 L 291.8345642089844 79.587158203125 L 291.8345642089844 87.927001953125 L 263.2603454589844 87.927001953125 L 263.2603454589844 38.161376953125 L 291.7662048339844 38.161376953125 L 291.7662048339844 46.535400390625 L 273.3091735839844 46.535400390625 L 273.3091735839844 58.293212890625 L 288.9634704589844 58.293212890625 Z M 307.6607360839844 70.427001953125 L 307.6607360839844 87.927001953125 L 297.6119079589844 87.927001953125 L 297.6119079589844 38.161376953125 L 314.5650329589844 38.161376953125 Q 321.9478454589844 38.161376953125 326.3399353027344 42.741455078125 Q 330.7320251464844 47.321533203125 330.7320251464844 54.635986328125 Q 330.7320251464844 61.950439453125 326.3912048339844 66.188720703125 Q 322.0503845214844 70.427001953125 314.3599548339844 70.427001953125 Z M 307.6607360839844 62.052978515625 L 314.5650329589844 62.052978515625 Q 317.4361267089844 62.052978515625 319.0083923339844 60.173095703125 Q 320.5806579589844 58.293212890625 320.5806579589844 54.704345703125 Q 320.5806579589844 50.978759765625 318.9742126464844 48.774169921875 Q 317.3677673339844 46.569580078125 314.6675720214844 46.535400390625 L 307.6607360839844 46.535400390625 Z" transform="matrix(1, 0, 0, 1, 0, 0)" style="fill: rgb(255, 251, 251); white-space: pre;"/>
</svg>