<?xml version="1.0" encoding="utf-8"?>
<svg width="32" height="16" viewBox="0 0 256 128" xmlns="http://www.w3.org/2000/svg">
  <path d="M 89.073 37.386 L 89.073 46.006 L 76.413 46.006 L 76.413 88.576 L 66.043 88.576 L 66.043 46.006 L 53.593 46.006 L 53.593 37.386 L 89.073 37.386 ZM 121.447 58.096 L 121.447 66.426 L 105.347 66.426 L 105.347 79.996 L 124.397 79.996 L 124.397 88.576 L 95.007 88.576 L 95.007 37.386 L 124.327 37.386 L 124.327 46.006 L 105.347 46.006 L 105.347 58.096 L 121.447 58.096 ZM 151.959 75.146 C 151.959 73.059 151.425 71.483 150.359 70.416 C 149.299 69.349 147.362 68.243 144.549 67.096 C 139.415 65.149 135.722 62.869 133.469 60.256 C 131.222 57.643 130.099 54.556 130.099 50.996 C 130.099 46.683 131.629 43.219 134.689 40.606 C 137.742 37.993 141.625 36.686 146.339 36.686 C 149.479 36.686 152.279 37.349 154.739 38.676 C 157.199 39.996 159.092 41.863 160.419 44.276 C 161.745 46.689 162.409 49.433 162.409 52.506 L 152.109 52.506 C 152.109 50.113 151.599 48.289 150.579 47.036 C 149.559 45.783 148.085 45.156 146.159 45.156 C 144.359 45.156 142.952 45.689 141.939 46.756 C 140.932 47.823 140.429 49.259 140.429 51.066 C 140.429 52.473 140.992 53.743 142.119 54.876 C 143.245 56.016 145.239 57.196 148.099 58.416 C 153.092 60.216 156.719 62.429 158.979 65.056 C 161.239 67.683 162.369 71.023 162.369 75.076 C 162.369 79.529 160.952 83.009 158.119 85.516 C 155.279 88.023 151.422 89.276 146.549 89.276 C 143.242 89.276 140.232 88.596 137.519 87.236 C 134.799 85.876 132.669 83.933 131.129 81.406 C 129.595 78.873 128.829 75.883 128.829 72.436 L 139.199 72.436 C 139.199 75.389 139.775 77.536 140.929 78.876 C 142.075 80.209 143.949 80.876 146.549 80.876 C 150.155 80.876 151.959 78.966 151.959 75.146 ZM 202.382 37.386 L 202.382 46.006 L 189.722 46.006 L 189.722 88.576 L 179.352 88.576 L 179.352 46.006 L 166.902 46.006 L 166.902 37.386 L 202.382 37.386 Z" transform="matrix(1, 0, 0, 1, 0, 0)" style="fill: rgb(255, 251, 251); white-space: pre;"/>
</svg>