<?xml version="1.0" encoding="utf-8"?>
<svg width="32" height="16" viewBox="0 0 256 128" xmlns="http://www.w3.org/2000/svg">
  <path d="M 59.36 58.107 L 59.36 66.437 L 43.26 66.437 L 43.26 80.007 L 62.31 80.007 L 62.31 88.587 L 32.92 88.587 L 32.92 37.397 L 62.24 37.397 L 62.24 46.017 L 43.26 46.017 L 43.26 58.107 L 59.36 58.107 ZM 91.462 88.587 L 83.762 69.887 L 78.622 69.887 L 78.622 88.587 L 68.292 88.587 L 68.292 37.397 L 84.782 37.397 C 89.962 37.397 93.962 38.74 96.782 41.427 C 99.609 44.107 101.022 47.92 101.022 52.867 C 101.022 59.667 98.549 64.424 93.602 67.137 L 102.572 88.097 L 102.572 88.587 L 91.462 88.587 Z M 78.622 46.017 L 78.622 61.267 L 84.502 61.267 C 86.562 61.267 88.109 60.584 89.142 59.217 C 90.169 57.844 90.682 56.007 90.682 53.707 C 90.682 48.58 88.679 46.017 84.672 46.017 L 78.622 46.017 ZM 131.329 88.587 L 123.629 69.887 L 118.489 69.887 L 118.489 88.587 L 108.159 88.587 L 108.159 37.397 L 124.649 37.397 C 129.829 37.397 133.829 38.74 136.649 41.427 C 139.476 44.107 140.889 47.92 140.889 52.867 C 140.889 59.667 138.416 64.424 133.469 67.137 L 142.439 88.097 L 142.439 88.587 L 131.329 88.587 Z M 118.489 46.017 L 118.489 61.267 L 124.369 61.267 C 126.429 61.267 127.976 60.584 129.009 59.217 C 130.036 57.844 130.549 56.007 130.549 53.707 C 130.549 48.58 128.546 46.017 124.539 46.017 L 118.489 46.017 ZM 184.026 58.847 L 184.026 67.597 C 184.026 74.464 182.403 79.797 179.156 83.597 C 175.91 87.39 171.403 89.287 165.636 89.287 C 159.896 89.287 155.386 87.407 152.106 83.647 C 148.82 79.887 147.153 74.62 147.106 67.847 L 147.106 59.087 C 147.106 52.06 148.736 46.57 151.996 42.617 C 155.256 38.67 159.78 36.697 165.566 36.697 C 171.26 36.697 175.75 38.637 179.036 42.517 C 182.316 46.397 183.98 51.84 184.026 58.847 Z M 173.656 67.917 L 173.656 59.017 C 173.656 54.404 173 50.97 171.686 48.717 C 170.373 46.47 168.333 45.347 165.566 45.347 C 162.826 45.347 160.8 46.43 159.486 48.597 C 158.173 50.764 157.493 54.064 157.446 58.497 L 157.446 67.597 C 157.446 72.077 158.113 75.377 159.446 77.497 C 160.786 79.617 162.85 80.677 165.636 80.677 C 168.33 80.677 170.333 79.64 171.646 77.567 C 172.96 75.494 173.63 72.277 173.656 67.917 ZM 214.65 88.587 L 206.95 69.887 L 201.81 69.887 L 201.81 88.587 L 191.48 88.587 L 191.48 37.397 L 207.97 37.397 C 213.15 37.397 217.15 38.74 219.97 41.427 C 222.796 44.107 224.21 47.92 224.21 52.867 C 224.21 59.667 221.736 64.424 216.79 67.137 L 225.76 88.097 L 225.76 88.587 L 214.65 88.587 Z M 201.81 46.017 L 201.81 61.267 L 207.69 61.267 C 209.75 61.267 211.296 60.584 212.33 59.217 C 213.356 57.844 213.87 56.007 213.87 53.707 C 213.87 48.58 211.866 46.017 207.86 46.017 L 201.81 46.017 Z" transform="matrix(1, 0, 0, 1, 0, 0)" style="fill: rgb(255, 255, 255); white-space: pre;"/>
</svg>