<?xml version="1.0" encoding="utf-8"?>
<svg width="32" height="16" viewBox="0 0 256 128" xmlns="http://www.w3.org/2000/svg">
  <path d="M 45.548 88.576 L 32.288 88.576 L 32.288 37.386 L 45.828 37.386 C 51.801 37.386 56.565 39.286 60.118 43.086 C 63.671 46.879 65.481 52.083 65.548 58.696 L 65.548 66.986 C 65.548 73.713 63.771 78.993 60.218 82.826 C 56.671 86.659 51.781 88.576 45.548 88.576 Z M 46.388 46.006 L 42.628 46.006 L 42.628 79.996 L 45.718 79.996 C 49.165 79.996 51.591 79.089 52.998 77.276 C 54.405 75.456 55.145 72.319 55.218 67.866 L 55.218 58.976 C 55.218 54.196 54.548 50.863 53.208 48.976 C 51.875 47.089 49.601 46.099 46.388 46.006 ZM 99.404 58.096 L 99.404 66.426 L 83.304 66.426 L 83.304 79.996 L 102.354 79.996 L 102.354 88.576 L 72.964 88.576 L 72.964 37.386 L 102.284 37.386 L 102.284 46.006 L 83.304 46.006 L 83.304 58.096 L 99.404 58.096 ZM 125.246 88.576 L 108.296 88.576 L 108.296 37.386 L 124.116 37.386 C 129.462 37.386 133.526 38.576 136.306 40.956 C 139.079 43.336 140.466 46.823 140.466 51.416 C 140.466 54.016 139.892 56.253 138.746 58.126 C 137.599 60.006 136.029 61.379 134.036 62.246 C 136.329 62.899 138.099 64.216 139.346 66.196 C 140.586 68.176 141.206 70.619 141.206 73.526 C 141.206 78.499 139.839 82.249 137.106 84.776 C 134.379 87.309 130.426 88.576 125.246 88.576 Z M 125.916 66.326 L 118.636 66.326 L 118.636 79.996 L 125.246 79.996 C 127.099 79.996 128.506 79.423 129.466 78.276 C 130.426 77.129 130.906 75.499 130.906 73.386 C 130.906 68.793 129.242 66.439 125.916 66.326 Z M 118.636 46.006 L 118.636 58.796 L 124.016 58.796 C 128.069 58.796 130.096 56.699 130.096 52.506 C 130.096 50.186 129.626 48.523 128.686 47.516 C 127.752 46.509 126.229 46.006 124.116 46.006 L 118.636 46.006 ZM 171.65 37.386 L 181.99 37.386 L 181.99 72.826 C 181.944 78.146 180.477 82.219 177.59 85.046 C 174.71 87.866 170.574 89.276 165.18 89.276 C 159.7 89.276 155.51 87.846 152.61 84.986 C 149.717 82.126 148.27 77.989 148.27 72.576 L 148.27 37.386 L 158.68 37.386 L 158.68 72.616 C 158.68 75.523 159.147 77.596 160.08 78.836 C 161.02 80.076 162.72 80.696 165.18 80.696 C 167.64 80.696 169.327 80.083 170.24 78.856 C 171.16 77.623 171.63 75.599 171.65 72.786 L 171.65 37.386 ZM 224.633 61.646 L 224.633 82.776 C 222.64 84.929 220.196 86.553 217.303 87.646 C 214.41 88.733 211.24 89.276 207.793 89.276 C 201.906 89.276 197.336 87.456 194.083 83.816 C 190.823 80.169 189.146 74.866 189.053 67.906 L 189.053 58.696 C 189.053 51.643 190.593 46.209 193.673 42.396 C 196.76 38.589 201.256 36.686 207.163 36.686 C 212.716 36.686 216.903 38.056 219.723 40.796 C 222.55 43.543 224.186 47.843 224.633 53.696 L 214.573 53.696 C 214.293 50.443 213.613 48.223 212.533 47.036 C 211.46 45.856 209.773 45.266 207.473 45.266 C 204.686 45.266 202.66 46.286 201.393 48.326 C 200.126 50.359 199.47 53.603 199.423 58.056 L 199.423 67.346 C 199.423 72.006 200.12 75.396 201.513 77.516 C 202.906 79.636 205.2 80.696 208.393 80.696 C 210.426 80.696 212.076 80.286 213.343 79.466 L 214.263 78.836 L 214.263 69.446 L 207.013 69.446 L 207.013 61.646 L 224.633 61.646 Z" transform="matrix(1, 0, 0, 1, 0, 0)" style="fill: rgb(255, 251, 251); white-space: pre;"/>
</svg>