<?xml version="1.0" encoding="utf-8"?>
<svg width="32" height="16" viewBox="0 0 256 128" xmlns="http://www.w3.org/2000/svg">
  <path d="M 68.744 88.61 L 59.644 67.9 L 50.644 67.9 L 50.644 88.61 L 44.174 88.61 L 44.174 37.42 L 58.514 37.42 C 63.534 37.42 67.331 38.727 69.904 41.34 C 72.484 43.953 73.774 47.78 73.774 52.82 C 73.774 55.987 73.077 58.747 71.684 61.1 C 70.291 63.453 68.317 65.23 65.764 66.43 L 75.674 88.19 L 75.674 88.61 L 68.744 88.61 Z M 50.644 42.98 L 50.644 62.38 L 58.444 62.38 C 61.144 62.38 63.294 61.513 64.894 59.78 C 66.501 58.047 67.304 55.727 67.304 52.82 C 67.304 46.26 64.327 42.98 58.374 42.98 L 50.644 42.98 ZM 106.439 37.42 L 112.909 37.42 L 112.909 73.81 C 112.856 78.663 111.449 82.46 108.689 85.2 C 105.922 87.94 102.066 89.31 97.119 89.31 C 92.059 89.31 88.192 87.97 85.519 85.29 C 82.846 82.603 81.486 78.777 81.439 73.81 L 81.439 37.42 L 87.839 37.42 L 87.839 73.56 C 87.839 77.007 88.572 79.58 90.039 81.28 C 91.499 82.98 93.859 83.83 97.119 83.83 C 100.399 83.83 102.772 82.98 104.239 81.28 C 105.706 79.58 106.439 77.007 106.439 73.56 L 106.439 37.42 ZM 156.249 37.42 L 156.249 88.61 L 149.779 88.61 L 129.289 49.16 L 129.289 88.61 L 122.819 88.61 L 122.819 37.42 L 129.289 37.42 L 149.849 77.04 L 149.849 37.42 L 156.249 37.42 Z" transform="matrix(1, 0, 0, 1, 0, 0)" style="fill: rgb(255, 255, 255); white-space: pre;"/>
  <path d="M 171.324 83.19 C 171.324 82.19 171.621 81.357 172.214 80.69 C 172.807 80.023 173.697 79.69 174.884 79.69 C 176.071 79.69 176.974 80.023 177.594 80.69 C 178.207 81.357 178.514 82.19 178.514 83.19 C 178.514 84.15 178.207 84.95 177.594 85.59 C 176.974 86.237 176.071 86.56 174.884 86.56 C 173.697 86.56 172.807 86.237 172.214 85.59 C 171.621 84.95 171.324 84.15 171.324 83.19 ZM 188.168 83.19 C 188.168 82.19 188.464 81.357 189.058 80.69 C 189.651 80.023 190.541 79.69 191.728 79.69 C 192.914 79.69 193.818 80.023 194.438 80.69 C 195.051 81.357 195.358 82.19 195.358 83.19 C 195.358 84.15 195.051 84.95 194.438 85.59 C 193.818 86.237 192.914 86.56 191.728 86.56 C 190.541 86.56 189.651 86.237 189.058 85.59 C 188.464 84.95 188.168 84.15 188.168 83.19 ZM 205.012 83.19 C 205.012 82.19 205.308 81.357 205.902 80.69 C 206.495 80.023 207.385 79.69 208.572 79.69 C 209.758 79.69 210.662 80.023 211.282 80.69 C 211.895 81.357 212.202 82.19 212.202 83.19 C 212.202 84.15 211.895 84.95 211.282 85.59 C 210.662 86.237 209.758 86.56 208.572 86.56 C 207.385 86.56 206.495 86.237 205.902 85.59 C 205.308 84.95 205.012 84.15 205.012 83.19 Z" transform="matrix(1, 0, 0, 1, 0, 0)" style="fill: rgb(255, 255, 255); white-space: pre;"/>
</svg>