<?xml version="1.0" encoding="utf-8"?>
<svg width="32" height="16" viewBox="0 0 256 128" xmlns="http://www.w3.org/2000/svg">
  <path d="M 71.612 70.576 L 64.722 70.576 L 64.722 88.576 L 54.382 88.576 L 54.382 37.386 L 71.822 37.386 C 76.882 37.386 80.919 38.956 83.932 42.096 C 86.945 45.236 88.452 49.316 88.452 54.336 C 88.452 59.349 86.962 63.309 83.982 66.216 C 81.009 69.123 76.885 70.576 71.612 70.576 Z M 64.722 46.006 L 64.722 61.966 L 71.822 61.966 C 73.789 61.966 75.312 61.319 76.392 60.026 C 77.472 58.739 78.012 56.866 78.012 54.406 C 78.012 51.853 77.462 49.819 76.362 48.306 C 75.255 46.793 73.779 46.026 71.932 46.006 L 64.722 46.006 ZM 116.261 88.576 L 113.521 78.096 L 99.421 78.096 L 96.681 88.576 L 85.741 88.576 L 101.741 37.386 L 111.201 37.386 L 127.301 88.576 L 116.261 88.576 Z M 106.451 51.236 L 101.671 69.486 L 111.231 69.486 L 106.451 51.236 ZM 153.697 75.146 C 153.697 73.059 153.164 71.483 152.097 70.416 C 151.037 69.349 149.101 68.243 146.287 67.096 C 141.154 65.149 137.461 62.869 135.207 60.256 C 132.961 57.643 131.837 54.556 131.837 50.996 C 131.837 46.683 133.367 43.219 136.427 40.606 C 139.481 37.993 143.364 36.686 148.077 36.686 C 151.217 36.686 154.017 37.349 156.477 38.676 C 158.937 39.996 160.831 41.863 162.157 44.276 C 163.484 46.689 164.147 49.433 164.147 52.506 L 153.847 52.506 C 153.847 50.113 153.337 48.289 152.317 47.036 C 151.297 45.783 149.824 45.156 147.897 45.156 C 146.097 45.156 144.691 45.689 143.677 46.756 C 142.671 47.823 142.167 49.259 142.167 51.066 C 142.167 52.473 142.731 53.743 143.857 54.876 C 144.984 56.016 146.977 57.196 149.837 58.416 C 154.831 60.216 158.457 62.429 160.717 65.056 C 162.977 67.683 164.107 71.023 164.107 75.076 C 164.107 79.529 162.691 83.009 159.857 85.516 C 157.017 88.023 153.161 89.276 148.287 89.276 C 144.981 89.276 141.971 88.596 139.257 87.236 C 136.537 85.876 134.407 83.933 132.867 81.406 C 131.334 78.873 130.567 75.883 130.567 72.436 L 140.937 72.436 C 140.937 75.389 141.514 77.536 142.667 78.876 C 143.814 80.209 145.687 80.876 148.287 80.876 C 151.894 80.876 153.697 78.966 153.697 75.146 ZM 192.58 75.146 C 192.58 73.059 192.047 71.483 190.98 70.416 C 189.92 69.349 187.983 68.243 185.17 67.096 C 180.037 65.149 176.343 62.869 174.09 60.256 C 171.843 57.643 170.72 54.556 170.72 50.996 C 170.72 46.683 172.25 43.219 175.31 40.606 C 178.363 37.993 182.247 36.686 186.96 36.686 C 190.1 36.686 192.9 37.349 195.36 38.676 C 197.82 39.996 199.713 41.863 201.04 44.276 C 202.367 46.689 203.03 49.433 203.03 52.506 L 192.73 52.506 C 192.73 50.113 192.22 48.289 191.2 47.036 C 190.18 45.783 188.707 45.156 186.78 45.156 C 184.98 45.156 183.573 45.689 182.56 46.756 C 181.553 47.823 181.05 49.259 181.05 51.066 C 181.05 52.473 181.613 53.743 182.74 54.876 C 183.867 56.016 185.86 57.196 188.72 58.416 C 193.713 60.216 197.34 62.429 199.6 65.056 C 201.86 67.683 202.99 71.023 202.99 75.076 C 202.99 79.529 201.573 83.009 198.74 85.516 C 195.9 88.023 192.043 89.276 187.17 89.276 C 183.863 89.276 180.853 88.596 178.14 87.236 C 175.42 85.876 173.29 83.933 171.75 81.406 C 170.217 78.873 169.45 75.883 169.45 72.436 L 179.82 72.436 C 179.82 75.389 180.397 77.536 181.55 78.876 C 182.697 80.209 184.57 80.876 187.17 80.876 C 190.777 80.876 192.58 78.966 192.58 75.146 Z" transform="matrix(1, 0, 0, 1, 0, 0)" style="fill: rgb(255, 251, 251); white-space: pre;"/>
</svg>