<?xml version="1.0" encoding="utf-8"?>
<svg width="32" height="16" viewBox="0 0 256 128" xmlns="http://www.w3.org/2000/svg">
  <path d="M 96.315 59.108 L 96.315 67.688 L 80.245 67.688 L 80.245 88.568 L 69.905 88.568 L 69.905 37.378 L 98.245 37.378 L 98.245 45.998 L 80.245 45.998 L 80.245 59.108 L 96.315 59.108 ZM 124.577 88.568 L 121.837 78.088 L 107.737 78.088 L 104.997 88.568 L 94.057 88.568 L 110.057 37.378 L 119.517 37.378 L 135.617 88.568 L 124.577 88.568 Z M 114.767 51.228 L 109.987 69.478 L 119.547 69.478 L 114.767 51.228 ZM 151.193 37.378 L 151.193 88.568 L 140.853 88.568 L 140.853 37.378 L 151.193 37.378 ZM 170.21 37.378 L 170.21 79.988 L 188.35 79.988 L 188.35 88.568 L 159.87 88.568 L 159.87 37.378 L 170.21 37.378 Z" transform="matrix(1, 0, 0, 1, 0, 0)" style="fill: rgb(255, 251, 251); white-space: pre;"/>
</svg>