<?xml version="1.0" encoding="utf-8"?>
<svg width="32" height="16" viewBox="0 0 256 128" xmlns="http://www.w3.org/2000/svg">
  <path d="M 67.283 75.138 C 67.283 73.051 66.75 71.475 65.683 70.408 C 64.623 69.341 62.686 68.235 59.873 67.088 C 54.74 65.141 51.046 62.861 48.793 60.248 C 46.546 57.635 45.423 54.548 45.423 50.988 C 45.423 46.675 46.953 43.211 50.013 40.598 C 53.066 37.985 56.95 36.678 61.663 36.678 C 64.803 36.678 67.603 37.341 70.063 38.668 C 72.523 39.988 74.416 41.855 75.743 44.268 C 77.07 46.681 77.733 49.425 77.733 52.498 L 67.433 52.498 C 67.433 50.105 66.923 48.281 65.903 47.028 C 64.883 45.775 63.41 45.148 61.483 45.148 C 59.683 45.148 58.276 45.681 57.263 46.748 C 56.256 47.815 55.753 49.251 55.753 51.058 C 55.753 52.465 56.316 53.735 57.443 54.868 C 58.57 56.008 60.563 57.188 63.423 58.408 C 68.416 60.208 72.043 62.421 74.303 65.048 C 76.563 67.675 77.693 71.015 77.693 75.068 C 77.693 79.521 76.276 83.001 73.443 85.508 C 70.603 88.015 66.746 89.268 61.873 89.268 C 58.566 89.268 55.556 88.588 52.843 87.228 C 50.123 85.868 47.993 83.925 46.453 81.398 C 44.92 78.865 44.153 75.875 44.153 72.428 L 54.523 72.428 C 54.523 75.381 55.1 77.528 56.253 78.868 C 57.4 80.201 59.273 80.868 61.873 80.868 C 65.48 80.868 67.283 78.958 67.283 75.138 ZM 107.506 37.378 L 117.846 37.378 L 117.846 72.818 C 117.799 78.138 116.332 82.211 113.446 85.038 C 110.566 87.858 106.429 89.268 101.036 89.268 C 95.556 89.268 91.366 87.838 88.466 84.978 C 85.572 82.118 84.126 77.981 84.126 72.568 L 84.126 37.378 L 94.536 37.378 L 94.536 72.608 C 94.536 75.515 95.002 77.588 95.936 78.828 C 96.876 80.068 98.576 80.688 101.036 80.688 C 103.496 80.688 105.182 80.075 106.096 78.848 C 107.016 77.615 107.486 75.591 107.506 72.778 L 107.506 37.378 ZM 136.479 37.378 L 136.479 88.568 L 126.139 88.568 L 126.139 37.378 L 136.479 37.378 ZM 177.296 37.378 L 177.296 45.998 L 164.636 45.998 L 164.636 88.568 L 154.266 88.568 L 154.266 45.998 L 141.816 45.998 L 141.816 37.378 L 177.296 37.378 ZM 209.669 58.088 L 209.669 66.418 L 193.569 66.418 L 193.569 79.988 L 212.619 79.988 L 212.619 88.568 L 183.229 88.568 L 183.229 37.378 L 212.549 37.378 L 212.549 45.998 L 193.569 45.998 L 193.569 58.088 L 209.669 58.088 Z" transform="matrix(1, 0, 0, 1, 0, 0)" style="fill: rgb(255, 251, 251); white-space: pre;"/>
</svg>