<?xml version="1.0" encoding="utf-8"?>
<svg width="32" height="16" viewBox="0 0 256 128" xmlns="http://www.w3.org/2000/svg">
  <path d="M 66.464 37.378 L 66.464 45.998 L 53.804 45.998 L 53.804 88.568 L 43.434 88.568 L 43.434 45.998 L 30.984 45.998 L 30.984 37.378 L 66.464 37.378 ZM 95.608 88.568 L 87.908 69.868 L 82.768 69.868 L 82.768 88.568 L 72.438 88.568 L 72.438 37.378 L 88.928 37.378 C 94.108 37.378 98.108 38.721 100.928 41.408 C 103.754 44.088 105.168 47.901 105.168 52.848 C 105.168 59.648 102.694 64.405 97.748 67.118 L 106.718 88.078 L 106.718 88.568 L 95.608 88.568 Z M 82.768 45.998 L 82.768 61.248 L 88.648 61.248 C 90.708 61.248 92.254 60.565 93.288 59.198 C 94.314 57.825 94.828 55.988 94.828 53.688 C 94.828 48.561 92.824 45.998 88.818 45.998 L 82.768 45.998 ZM 139.445 88.568 L 136.705 78.088 L 122.605 78.088 L 119.865 88.568 L 108.925 88.568 L 124.925 37.378 L 134.385 37.378 L 150.485 88.568 L 139.445 88.568 Z M 129.635 51.228 L 124.855 69.478 L 134.415 69.478 L 129.635 51.228 ZM 178.893 71.518 L 189.223 71.518 C 188.969 77.351 187.329 81.768 184.303 84.768 C 181.283 87.768 177.016 89.268 171.503 89.268 C 165.716 89.268 161.283 87.365 158.203 83.558 C 155.116 79.751 153.573 74.321 153.573 67.268 L 153.573 58.648 C 153.573 51.621 155.169 46.201 158.363 42.388 C 161.549 38.581 165.976 36.678 171.643 36.678 C 177.223 36.678 181.459 38.238 184.353 41.358 C 187.253 44.471 188.899 48.945 189.293 54.778 L 178.923 54.778 C 178.829 51.171 178.273 48.681 177.253 47.308 C 176.233 45.941 174.363 45.258 171.643 45.258 C 168.883 45.258 166.926 46.225 165.773 48.158 C 164.626 50.091 164.019 53.271 163.953 57.698 L 163.953 67.368 C 163.953 72.455 164.519 75.948 165.653 77.848 C 166.793 79.741 168.743 80.688 171.503 80.688 C 174.223 80.688 176.099 80.028 177.133 78.708 C 178.166 77.381 178.753 74.985 178.893 71.518 ZM 222.025 58.088 L 222.025 66.418 L 205.925 66.418 L 205.925 79.988 L 224.975 79.988 L 224.975 88.568 L 195.585 88.568 L 195.585 37.378 L 224.905 37.378 L 224.905 45.998 L 205.925 45.998 L 205.925 58.088 L 222.025 58.088 Z" transform="matrix(1, 0, 0, 1, 0, 0)" style="fill: rgb(255, 251, 251); white-space: pre;"/>
</svg>