<?xml version="1.0" encoding="utf-8"?>
<svg width="32" height="16" viewBox="0 0 256 128" xmlns="http://www.w3.org/2000/svg">
  <path d="M 76.60137557983398 75.17430877685547 Q 76.60137557983398 72.04540252685547 75.00176620483398 70.44579315185547 Q 73.40215682983398 68.84618377685547 69.18340682983398 67.12352752685547 Q 61.484188079833984 64.20555877685547 58.109188079833984 60.28563690185547 Q 54.734188079833984 56.36571502685547 54.734188079833984 51.02196502685547 Q 54.734188079833984 44.55321502685547 59.322078704833984 40.63329315185547 Q 63.909969329833984 36.71337127685547 70.97637557983398 36.71337127685547 Q 75.68731307983398 36.71337127685547 79.37871932983398 38.69969940185547 Q 83.07012557983398 40.68602752685547 85.05645370483398 44.30712127685547 Q 87.04278182983398 47.92821502685547 87.04278182983398 52.53368377685547 L 76.74200057983398 52.53368377685547 Q 76.74200057983398 48.94774627685547 75.21270370483398 47.06688690185547 Q 73.68340682983398 45.18602752685547 70.80059432983398 45.18602752685547 Q 68.09356307983398 45.18602752685547 66.58184432983398 46.78563690185547 Q 65.07012557983398 48.38524627685547 65.07012557983398 51.09227752685547 Q 65.07012557983398 53.20165252685547 66.75762557983398 54.90673065185547 Q 68.44512557983398 56.61180877685547 72.73418807983398 58.43993377685547 Q 80.22246932983398 61.14696502685547 83.61504745483398 65.08446502685547 Q 87.00762557983398 69.02196502685547 87.00762557983398 75.10399627685547 Q 87.00762557983398 81.78368377685547 82.75371932983398 85.54540252685547 Q 78.49981307983398 89.30712127685547 71.18731307983398 89.30712127685547 Q 66.23028182983398 89.30712127685547 62.152156829833984 87.26805877685547 Q 58.074031829833984 85.22899627685547 55.771297454833984 81.43212127685547 Q 53.468563079833984 77.63524627685547 53.468563079833984 72.46727752685547 L 63.839656829833984 72.46727752685547 Q 63.839656829833984 76.89696502685547 65.56231307983398 78.90087127685547 Q 67.28496932983398 80.90477752685547 71.18731307983398 80.90477752685547 Q 76.60137557983398 80.90477752685547 76.60137557983398 75.17430877685547 Z M 127.01544189453125 46.02977752685547 L 114.35919189453125 46.02977752685547 L 114.35919189453125 88.60399627685547 L 103.98809814453125 88.60399627685547 L 103.98809814453125 46.02977752685547 L 91.54278564453125 46.02977752685547 L 91.54278564453125 37.41649627685547 L 127.01544189453125 37.41649627685547 Z M 159.39434814453125 66.45555877685547 L 143.29278564453125 66.45555877685547 L 143.29278564453125 80.02587127685547 L 162.34747314453125 80.02587127685547 L 162.34747314453125 88.60399627685547 L 132.95684814453125 88.60399627685547 L 132.95684814453125 37.41649627685547 L 162.27716064453125 37.41649627685547 L 162.27716064453125 46.02977752685547 L 143.29278564453125 46.02977752685547 L 143.29278564453125 58.12352752685547 L 159.39434814453125 58.12352752685547 Z M 178.62091064453125 70.60399627685547 L 178.62091064453125 88.60399627685547 L 168.28497314453125 88.60399627685547 L 168.28497314453125 37.41649627685547 L 185.72247314453125 37.41649627685547 Q 193.31622314453125 37.41649627685547 197.83380126953125 42.12743377685547 Q 202.35137939453125 46.83837127685547 202.35137939453125 54.36180877685547 Q 202.35137939453125 61.88524627685547 197.88653564453125 66.24462127685547 Q 193.42169189453125 70.60399627685547 185.51153564453125 70.60399627685547 Z M 178.62091064453125 61.99071502685547 L 185.72247314453125 61.99071502685547 Q 188.67559814453125 61.99071502685547 190.29278564453125 60.05712127685547 Q 191.90997314453125 58.12352752685547 191.90997314453125 54.43212127685547 Q 191.90997314453125 50.60009002685547 190.25762939453125 48.33251190185547 Q 188.60528564453125 46.06493377685547 185.82794189453125 46.02977752685547 L 178.62091064453125 46.02977752685547 Z" transform="matrix(1, 0, 0, 1, 0, 0)" style="fill: rgb(255, 251, 251); white-space: pre;"/>
</svg>