<?xml version="1.0" encoding="utf-8"?>
<svg width="32" height="32" viewBox="0 0 500 500" xmlns="http://www.w3.org/2000/svg">
  <rect x="52.04" y="113.798" width="395.921" height="272.404" style="stroke-linecap: round; stroke-linejoin: round; stroke-width: 24px; stroke: rgb(174, 185, 192); fill: rgb(174, 185, 192);"/>
  <path d="M 102.697 222.571 L 131.207 222.571 L 131.207 208.041 L 56.677 208.041 L 56.677 222.571 L 84.797 222.571 L 84.797 300.461 L 102.697 300.461 L 102.697 222.571 ZM 159.13 265.931 L 172.65 265.931 L 190.05 300.461 L 209.15 300.461 L 209.15 299.631 L 189.28 261.491 C 191.82 260.344 194.116 258.988 196.17 257.421 C 198.223 255.854 199.99 254.014 201.47 251.901 C 202.91 249.828 204.02 247.468 204.8 244.821 C 205.586 242.181 205.98 239.208 205.98 235.901 C 205.98 231.334 205.186 227.314 203.6 223.841 C 202.013 220.374 199.76 217.478 196.84 215.151 C 193.873 212.824 190.316 211.058 186.17 209.851 C 182.023 208.644 177.39 208.041 172.27 208.041 L 141.3 208.041 L 141.3 300.461 L 159.13 300.461 L 159.13 265.931 Z M 172.34 251.461 L 159.13 251.461 L 159.13 222.511 L 172.27 222.511 C 174.723 222.511 176.903 222.808 178.81 223.401 C 180.716 223.994 182.323 224.841 183.63 225.941 C 185.116 227.168 186.23 228.721 186.97 230.601 C 187.71 232.488 188.08 234.658 188.08 237.111 C 188.08 239.144 187.793 240.984 187.22 242.631 C 186.646 244.284 185.81 245.704 184.71 246.891 C 183.403 248.371 181.7 249.501 179.6 250.281 C 177.506 251.068 175.086 251.461 172.34 251.461 ZM 237.022 281.161 L 264.752 281.161 L 270.152 300.461 L 288.942 300.461 L 259.232 208.041 L 243.052 208.041 L 212.772 300.461 L 231.562 300.461 L 237.022 281.161 Z M 260.572 265.991 L 241.402 265.991 L 251.112 231.971 L 260.572 265.991 ZM 361.495 271.511 L 343.655 271.511 C 343.488 274.304 343.025 276.698 342.265 278.691 C 341.498 280.678 340.462 282.308 339.155 283.581 C 337.842 284.848 336.255 285.778 334.395 286.371 C 332.528 286.964 330.432 287.261 328.105 287.261 C 326.372 287.261 324.795 287.058 323.375 286.651 C 321.962 286.251 320.682 285.628 319.535 284.781 C 318.482 284.021 317.542 283.068 316.715 281.921 C 315.888 280.781 315.178 279.471 314.585 277.991 C 313.738 275.831 313.115 273.301 312.715 270.401 C 312.315 267.508 312.115 264.218 312.115 260.531 L 312.115 247.961 C 312.115 245.254 312.242 242.728 312.495 240.381 C 312.748 238.034 313.148 235.888 313.695 233.941 C 314.415 231.441 315.378 229.251 316.585 227.371 C 317.792 225.484 319.262 224.034 320.995 223.021 C 322.015 222.428 323.125 221.984 324.325 221.691 C 325.532 221.391 326.835 221.241 328.235 221.241 C 330.855 221.241 333.108 221.591 334.995 222.291 C 336.875 222.991 338.452 224.018 339.725 225.371 C 340.952 226.764 341.892 228.498 342.545 230.571 C 343.205 232.644 343.618 235.058 343.785 237.811 L 361.555 237.811 C 361.135 232.984 360.122 228.648 358.515 224.801 C 356.902 220.948 354.702 217.688 351.915 215.021 C 349.122 212.354 345.745 210.301 341.785 208.861 C 337.832 207.428 333.315 206.711 328.235 206.711 C 324.808 206.711 321.602 207.144 318.615 208.011 C 315.635 208.878 312.895 210.114 310.395 211.721 C 307.602 213.628 305.105 215.954 302.905 218.701 C 300.705 221.454 298.928 224.588 297.575 228.101 C 296.388 230.974 295.498 234.094 294.905 237.461 C 294.312 240.828 294.015 244.371 294.015 248.091 L 294.015 260.531 C 294.015 264.511 294.345 268.278 295.005 271.831 C 295.658 275.384 296.598 278.644 297.825 281.611 C 299.098 284.571 300.655 287.278 302.495 289.731 C 304.335 292.184 306.438 294.281 308.805 296.021 C 311.392 297.881 314.302 299.308 317.535 300.301 C 320.775 301.294 324.298 301.791 328.105 301.791 C 332.932 301.791 337.332 301.084 341.305 299.671 C 345.285 298.251 348.715 296.228 351.595 293.601 C 354.468 290.981 356.765 287.808 358.485 284.081 C 360.198 280.361 361.202 276.171 361.495 271.511 ZM 394.248 259.961 L 432.208 259.961 L 432.208 245.871 L 394.248 245.871 L 394.248 222.571 L 438.428 222.571 L 438.428 208.041 L 376.348 208.041 L 376.348 300.461 L 438.618 300.461 L 438.618 286.051 L 394.248 286.051 L 394.248 259.961 Z" transform="matrix(1, 0, 0, 1, 0, 0)" style="fill: rgb(255, 255, 255); white-space: pre;"/>
</svg>