<?xml version="1.0" encoding="utf-8"?>
<svg width="32" height="32" viewBox="0 0 500 500" xmlns="http://www.w3.org/2000/svg">
  <rect x="52.04" y="113.798" width="395.921" height="272.404" style="stroke-linecap: round; stroke-linejoin: round; stroke-width: 24px; stroke: rgb(174, 185, 192); fill: rgb(174, 185, 192);"/>
  <path d="M 62.905 208.033 L 62.905 300.453 L 87.725 300.453 C 91.832 300.453 95.695 299.946 99.315 298.933 C 102.935 297.913 106.245 296.453 109.245 294.553 C 111.825 292.94 114.195 290.94 116.355 288.553 C 118.515 286.16 120.398 283.546 122.005 280.713 C 123.698 277.54 125.012 274.05 125.945 270.243 C 126.872 266.43 127.335 262.386 127.335 258.113 L 127.335 250.493 C 127.335 246.053 126.838 241.866 125.845 237.933 C 124.852 233.993 123.445 230.393 121.625 227.133 C 120.058 224.473 118.228 222.01 116.135 219.743 C 114.042 217.476 111.662 215.56 108.995 213.993 C 105.948 212.093 102.562 210.623 98.835 209.583 C 95.115 208.55 91.118 208.033 86.845 208.033 L 62.905 208.033 Z M 80.875 286.103 L 80.875 222.503 L 86.845 222.503 C 88.998 222.503 90.995 222.746 92.835 223.233 C 94.682 223.72 96.365 224.406 97.885 225.293 C 99.872 226.48 101.618 228.003 103.125 229.863 C 104.625 231.73 105.842 233.846 106.775 236.213 C 107.535 238.206 108.115 240.396 108.515 242.783 C 108.922 245.176 109.125 247.706 109.125 250.373 L 109.125 258.113 C 109.125 260.946 108.922 263.58 108.515 266.013 C 108.115 268.446 107.535 270.66 106.775 272.653 C 105.842 274.933 104.728 276.933 103.435 278.653 C 102.148 280.366 100.702 281.773 99.095 282.873 C 97.528 283.926 95.792 284.73 93.885 285.283 C 91.978 285.83 89.925 286.103 87.725 286.103 L 80.875 286.103 ZM 160.218 259.953 L 198.178 259.953 L 198.178 245.863 L 160.218 245.863 L 160.218 222.563 L 204.398 222.563 L 204.398 208.033 L 142.318 208.033 L 142.318 300.453 L 204.588 300.453 L 204.588 286.043 L 160.218 286.043 L 160.218 259.953 ZM 219.19 208.033 L 219.19 300.453 L 252.89 300.453 C 257.97 300.453 262.544 299.883 266.61 298.743 C 270.67 297.596 274.117 295.88 276.95 293.593 C 279.79 291.313 281.97 288.48 283.49 285.093 C 285.017 281.706 285.78 277.793 285.78 273.353 C 285.78 271.02 285.47 268.766 284.85 266.593 C 284.237 264.413 283.297 262.39 282.03 260.523 C 280.804 258.79 279.29 257.266 277.49 255.953 C 275.69 254.646 273.267 253.57 270.22 252.723 L 270.22 252.653 C 271.787 252.06 273.217 251.34 274.51 250.493 C 275.797 249.646 276.95 248.716 277.97 247.703 C 279.83 245.843 281.237 243.673 282.19 241.193 C 283.144 238.72 283.64 236.086 283.68 233.293 C 283.68 228.98 282.887 225.236 281.3 222.063 C 279.714 218.89 277.46 216.266 274.54 214.193 C 271.62 212.113 268.097 210.566 263.97 209.553 C 259.844 208.54 255.264 208.033 250.23 208.033 L 219.19 208.033 Z M 237.09 286.043 L 237.09 259.703 L 253.72 259.703 C 256.214 259.743 258.37 260.08 260.19 260.713 C 262.01 261.353 263.494 262.263 264.64 263.443 C 265.78 264.59 266.617 265.986 267.15 267.633 C 267.677 269.286 267.94 271.15 267.94 273.223 C 267.94 275.21 267.59 277.006 266.89 278.613 C 266.19 280.226 265.164 281.603 263.81 282.743 C 262.584 283.756 261.05 284.56 259.21 285.153 C 257.37 285.746 255.287 286.043 252.96 286.043 L 237.09 286.043 Z M 250.36 246.813 L 237.09 246.813 L 237.09 222.563 L 250.29 222.563 C 253.17 222.61 255.677 222.93 257.81 223.523 C 259.95 224.116 261.654 225.066 262.92 226.373 C 263.894 227.306 264.624 228.47 265.11 229.863 C 265.597 231.263 265.84 232.893 265.84 234.753 C 265.84 236.533 265.557 238.12 264.99 239.513 C 264.417 240.913 263.6 242.1 262.54 243.073 C 261.274 244.3 259.604 245.22 257.53 245.833 C 255.457 246.446 253.067 246.773 250.36 246.813 ZM 358.963 269.283 L 358.903 208.033 L 341.193 208.033 L 341.123 269.283 C 341.083 272.29 340.766 274.936 340.173 277.223 C 339.58 279.51 338.693 281.413 337.513 282.933 C 336.413 284.413 335.026 285.523 333.353 286.263 C 331.68 287.003 329.763 287.373 327.603 287.373 C 325.616 287.373 323.863 287.026 322.343 286.333 C 320.816 285.633 319.523 284.583 318.463 283.183 C 317.323 281.663 316.466 279.74 315.893 277.413 C 315.326 275.086 315.02 272.376 314.973 269.283 L 314.913 208.033 L 297.073 208.033 L 297.013 269.283 C 297.013 274.45 297.743 279.053 299.203 283.093 C 300.663 287.133 302.726 290.53 305.393 293.283 C 308.06 296.03 311.263 298.123 315.003 299.563 C 318.75 301.003 322.95 301.723 327.603 301.723 C 332.556 301.723 336.97 301.003 340.843 299.563 C 344.716 298.123 348.006 296.006 350.713 293.213 C 353.38 290.466 355.42 287.083 356.833 283.063 C 358.253 279.043 358.963 274.45 358.963 269.283 ZM 438.886 289.663 L 438.816 253.223 L 405.746 253.223 L 405.746 266.553 L 421.046 266.553 L 420.986 283.313 C 420.519 283.866 419.829 284.386 418.916 284.873 C 418.009 285.36 416.962 285.793 415.776 286.173 C 414.589 286.553 413.319 286.85 411.966 287.063 C 410.612 287.27 409.239 287.373 407.846 287.373 C 405.559 287.333 403.516 286.963 401.716 286.263 C 399.916 285.57 398.339 284.543 396.986 283.183 C 396.179 282.383 395.449 281.463 394.796 280.423 C 394.142 279.39 393.562 278.26 393.056 277.033 C 392.249 274.913 391.622 272.48 391.176 269.733 C 390.736 266.98 390.516 263.933 390.516 260.593 L 390.516 247.893 C 390.516 245.226 390.672 242.75 390.986 240.463 C 391.306 238.183 391.762 236.11 392.356 234.243 C 393.116 231.836 394.079 229.743 395.246 227.963 C 396.406 226.183 397.706 224.743 399.146 223.643 C 400.246 222.843 401.429 222.23 402.696 221.803 C 403.969 221.383 405.282 221.173 406.636 221.173 C 409.129 221.173 411.276 221.5 413.076 222.153 C 414.876 222.813 416.369 223.796 417.556 225.103 C 418.609 226.29 419.442 227.75 420.056 229.483 C 420.676 231.223 421.132 233.213 421.426 235.453 L 438.816 235.453 C 438.349 231.006 437.366 227.006 435.866 223.453 C 434.366 219.9 432.282 216.876 429.616 214.383 C 426.949 211.923 423.679 210.04 419.806 208.733 C 415.932 207.42 411.396 206.763 406.196 206.763 C 402.809 206.763 399.592 207.23 396.546 208.163 C 393.499 209.09 390.682 210.463 388.096 212.283 C 385.896 213.89 383.876 215.793 382.036 217.993 C 380.196 220.193 378.579 222.67 377.186 225.423 C 375.699 228.51 374.556 231.95 373.756 235.743 C 372.949 239.53 372.546 243.623 372.546 248.023 L 372.546 260.593 C 372.546 265.206 372.959 269.48 373.786 273.413 C 374.612 277.346 375.829 280.88 377.436 284.013 C 378.829 286.846 380.532 289.363 382.546 291.563 C 384.559 293.763 386.792 295.626 389.246 297.153 C 391.739 298.633 394.479 299.766 397.466 300.553 C 400.446 301.333 403.629 301.723 407.016 301.723 C 410.909 301.723 414.549 301.363 417.936 300.643 C 421.322 299.923 424.389 298.97 427.136 297.783 C 429.842 296.643 432.192 295.353 434.186 293.913 C 436.172 292.473 437.739 291.056 438.886 289.663 Z" transform="matrix(1, 0, 0, 1, 0, 0)" style="fill: rgb(255, 255, 255); white-space: pre;"/>
</svg>