<?xml version="1.0" encoding="utf-8"?>
<svg width="32" height="32" viewBox="0 0 500 500" xmlns="http://www.w3.org/2000/svg">
  <rect x="52.04" y="113.798" width="395.921" height="272.404" style="stroke-linecap: round; stroke-linejoin: round; stroke-width: 24px; stroke: rgb(174, 185, 192); fill: rgb(174, 185, 192);"/>
  <path d="M 145.777 201.68 L 84.107 201.68 L 84.107 218.31 L 104.387 218.31 L 104.387 291.77 L 84.107 291.77 L 84.107 308.32 L 145.777 308.32 L 145.777 291.77 L 124.967 291.77 L 124.967 218.31 L 145.777 218.31 L 145.777 201.68 ZM 219.382 308.32 L 239.892 308.32 L 239.892 201.68 L 219.232 201.68 L 219.162 270.16 L 189.722 201.68 L 168.992 201.68 L 168.992 308.32 L 189.722 308.32 L 189.722 239.55 L 219.382 308.32 ZM 281.566 264.15 L 327.266 264.15 L 327.266 247.46 L 281.566 247.46 L 281.566 218.45 L 332.976 218.45 L 332.976 201.68 L 260.906 201.68 L 260.906 308.32 L 281.566 308.32 L 281.566 264.15 ZM 424.021 262.84 L 424.021 247.31 C 424.021 242.477 423.568 237.91 422.661 233.61 C 421.761 229.317 420.458 225.363 418.751 221.75 C 417.184 218.577 415.314 215.67 413.141 213.03 C 410.968 210.397 408.441 208.15 405.561 206.29 C 402.681 204.337 399.448 202.837 395.861 201.79 C 392.268 200.737 388.421 200.21 384.321 200.21 C 380.268 200.21 376.508 200.723 373.041 201.75 C 369.574 202.777 366.451 204.243 363.671 206.15 C 360.838 208.103 358.334 210.447 356.161 213.18 C 353.988 215.913 352.144 218.963 350.631 222.33 C 349.071 225.897 347.888 229.78 347.081 233.98 C 346.274 238.18 345.871 242.623 345.871 247.31 L 345.871 262.84 C 345.871 267.233 346.224 271.407 346.931 275.36 C 347.638 279.313 348.674 282.977 350.041 286.35 C 351.554 290.01 353.434 293.293 355.681 296.2 C 357.928 299.107 360.468 301.583 363.301 303.63 C 366.181 305.583 369.381 307.097 372.901 308.17 C 376.414 309.243 380.244 309.78 384.391 309.78 C 388.298 309.78 391.948 309.307 395.341 308.36 C 398.734 307.407 401.848 306.073 404.681 304.36 C 407.808 302.413 410.591 299.973 413.031 297.04 C 415.471 294.113 417.521 290.89 419.181 287.37 C 420.748 283.857 421.944 280.037 422.771 275.91 C 423.604 271.783 424.021 267.427 424.021 262.84 Z M 403.141 247.16 L 403.141 262.84 C 403.141 265.473 403.008 268.01 402.741 270.45 C 402.474 272.897 402.071 275.143 401.531 277.19 C 400.851 279.83 399.938 282.187 398.791 284.26 C 397.644 286.333 396.241 288.053 394.581 289.42 C 393.261 290.547 391.744 291.403 390.031 291.99 C 388.324 292.577 386.444 292.87 384.391 292.87 C 382.244 292.87 380.331 292.55 378.651 291.91 C 376.964 291.277 375.461 290.373 374.141 289.2 C 372.728 287.887 371.494 286.167 370.441 284.04 C 369.394 281.913 368.601 279.557 368.061 276.97 C 367.574 274.923 367.234 272.703 367.041 270.31 C 366.841 267.917 366.741 265.427 366.741 262.84 L 366.741 247.16 C 366.741 244.427 366.851 241.817 367.071 239.33 C 367.291 236.837 367.648 234.54 368.141 232.44 C 368.774 229.707 369.664 227.313 370.811 225.26 C 371.958 223.213 373.361 221.507 375.021 220.14 C 376.241 219.207 377.621 218.497 379.161 218.01 C 380.701 217.523 382.421 217.28 384.321 217.28 C 386.321 217.28 388.141 217.55 389.781 218.09 C 391.414 218.623 392.891 219.38 394.211 220.36 C 395.871 221.673 397.311 223.37 398.531 225.45 C 399.751 227.523 400.728 229.877 401.461 232.51 C 402.048 234.61 402.474 236.893 402.741 239.36 C 403.008 241.827 403.141 244.427 403.141 247.16 Z" transform="matrix(1, 0, 0, 1, 0, 0)" style="fill: rgb(255, 255, 255); white-space: pre;"/>
</svg>