<?xml version="1.0" encoding="utf-8"?>
<svg width="32" height="32" viewBox="0 0 500 500" xmlns="http://www.w3.org/2000/svg">
  <rect x="52.04" y="113.798" width="395.921" height="272.404" style="stroke-linecap: round; stroke-linejoin: round; stroke-width: 24px; fill: rgb(252, 52, 52); stroke: rgb(252, 52, 52);"/>
  <path d="M 101.539 264.155 L 147.239 264.155 L 147.239 247.465 L 101.539 247.465 L 101.539 218.455 L 152.949 218.455 L 152.949 201.685 L 80.879 201.685 L 80.879 308.325 L 101.539 308.325 L 101.539 264.155 ZM 190.014 286.055 L 222.024 286.055 L 228.244 308.325 L 249.924 308.325 L 215.644 201.685 L 196.974 201.685 L 162.034 308.325 L 183.714 308.325 L 190.014 286.055 Z M 217.184 268.555 L 195.064 268.555 L 206.274 229.295 L 217.184 268.555 ZM 325.808 201.685 L 264.138 201.685 L 264.138 218.315 L 284.418 218.315 L 284.418 291.775 L 264.138 291.775 L 264.138 308.325 L 325.808 308.325 L 325.808 291.775 L 304.998 291.775 L 304.998 218.315 L 325.808 218.315 L 325.808 201.685 ZM 421.603 291.695 L 371.653 291.695 L 371.653 201.685 L 351.003 201.685 L 351.003 308.325 L 421.603 308.325 L 421.603 291.695 Z" transform="matrix(1, 0, 0, 1, 0, 0)" style="fill: rgb(255, 255, 255); white-space: pre;"/>
</svg>