<svg width="32" height="16" viewBox="0 0 200 100" xmlns="http://www.w3.org/2000/svg">
  <rect style="fill: rgb(3, 188, 71);" width="200" height="100" rx="30" ry="30"/>
  <path d="M 162.226 182.866 L 152.846 182.866 L 152.846 207.366 L 138.776 207.366 L 138.776 137.696 L 162.506 137.696 C 169.399 137.696 174.896 139.833 178.996 144.106 C 183.096 148.379 185.146 153.929 185.146 160.756 C 185.146 167.583 183.119 172.976 179.066 176.936 C 175.013 180.889 169.399 182.866 162.226 182.866 Z M 152.846 149.416 L 152.846 171.146 L 162.506 171.146 C 165.186 171.146 167.259 170.266 168.726 168.506 C 170.193 166.753 170.926 164.203 170.926 160.856 C 170.926 157.376 170.179 154.609 168.686 152.556 C 167.186 150.496 165.176 149.449 162.656 149.416 L 152.846 149.416 ZM 222.993 207.366 L 219.263 193.106 L 200.073 193.106 L 196.333 207.366 L 181.453 207.366 L 203.233 137.696 L 216.103 137.696 L 238.013 207.366 L 222.993 207.366 Z M 209.643 156.546 L 203.133 181.386 L 216.153 181.386 L 209.643 156.546 ZM 273.953 189.086 C 273.953 186.246 273.227 184.099 271.773 182.646 C 270.32 181.199 267.68 179.693 263.853 178.126 C 256.867 175.479 251.843 172.379 248.783 168.826 C 245.717 165.266 244.183 161.063 244.183 156.216 C 244.183 150.343 246.267 145.629 250.433 142.076 C 254.593 138.516 259.88 136.736 266.293 136.736 C 270.567 136.736 274.38 137.636 277.733 139.436 C 281.08 141.243 283.657 143.789 285.463 147.076 C 287.263 150.363 288.163 154.093 288.163 158.266 L 274.143 158.266 C 274.143 155.013 273.45 152.533 272.063 150.826 C 270.677 149.119 268.673 148.266 266.053 148.266 C 263.6 148.266 261.687 148.993 260.313 150.446 C 258.94 151.899 258.253 153.853 258.253 156.306 C 258.253 158.219 259.02 159.949 260.553 161.496 C 262.087 163.049 264.797 164.653 268.683 166.306 C 275.483 168.766 280.42 171.783 283.493 175.356 C 286.573 178.929 288.113 183.473 288.113 188.986 C 288.113 195.053 286.183 199.793 282.323 203.206 C 278.463 206.619 273.217 208.326 266.583 208.326 C 262.083 208.326 257.983 207.399 254.283 205.546 C 250.583 203.699 247.69 201.053 245.603 197.606 C 243.51 194.159 242.463 190.093 242.463 185.406 L 256.583 185.406 C 256.583 189.426 257.363 192.343 258.923 194.156 C 260.49 195.976 263.043 196.886 266.583 196.886 C 271.497 196.886 273.953 194.286 273.953 189.086 ZM 326.875 189.086 C 326.875 186.246 326.148 184.099 324.695 182.646 C 323.241 181.199 320.601 179.693 316.775 178.126 C 309.788 175.479 304.765 172.379 301.705 168.826 C 298.638 165.266 297.105 161.063 297.105 156.216 C 297.105 150.343 299.188 145.629 303.355 142.076 C 307.515 138.516 312.801 136.736 319.215 136.736 C 323.488 136.736 327.301 137.636 330.655 139.436 C 334.001 141.243 336.578 143.789 338.385 147.076 C 340.185 150.363 341.085 154.093 341.085 158.266 L 327.065 158.266 C 327.065 155.013 326.371 152.533 324.985 150.826 C 323.598 149.119 321.595 148.266 318.975 148.266 C 316.521 148.266 314.608 148.993 313.235 150.446 C 311.861 151.899 311.175 153.853 311.175 156.306 C 311.175 158.219 311.941 159.949 313.475 161.496 C 315.008 163.049 317.718 164.653 321.605 166.306 C 328.405 168.766 333.341 171.783 336.415 175.356 C 339.495 178.929 341.035 183.473 341.035 188.986 C 341.035 195.053 339.105 199.793 335.245 203.206 C 331.385 206.619 326.138 208.326 319.505 208.326 C 315.005 208.326 310.905 207.399 307.205 205.546 C 303.505 203.699 300.611 201.053 298.525 197.606 C 296.431 194.159 295.385 190.093 295.385 185.406 L 309.505 185.406 C 309.505 189.426 310.285 192.343 311.845 194.156 C 313.411 195.976 315.965 196.886 319.505 196.886 C 324.418 196.886 326.875 194.286 326.875 189.086 Z" transform="matrix(0.6624130010604858, 0, 0, 0.64621901512146, -58.2960090637207, -62.2906494140625)" style="fill: rgb(255, 255, 255); white-space: pre;"/>
</svg>