<?xml version="1.0" encoding="utf-8"?>
<svg width="16" height="16" viewBox="0 0 128 128" xmlns="http://www.w3.org/2000/svg">
  <circle style="fill: rgb(3, 188, 71);" cx="64" cy="64" r="64"/>
  <path d="M 74.307 78.582 C 74.307 76.175 73.454 74.299 71.747 72.952 C 70.047 71.612 67.057 70.222 62.777 68.782 C 58.497 67.349 54.997 65.959 52.277 64.612 C 43.43 60.265 39.007 54.295 39.007 46.702 C 39.007 42.922 40.11 39.589 42.317 36.702 C 44.517 33.809 47.634 31.559 51.667 29.952 C 55.7 28.339 60.23 27.532 65.257 27.532 C 70.164 27.532 74.564 28.409 78.457 30.162 C 82.344 31.909 85.367 34.399 87.527 37.632 C 89.68 40.872 90.757 44.569 90.757 48.722 L 74.357 48.722 C 74.357 45.942 73.504 43.785 71.797 42.252 C 70.097 40.719 67.794 39.952 64.887 39.952 C 61.947 39.952 59.627 40.602 57.927 41.902 C 56.22 43.195 55.367 44.842 55.367 46.842 C 55.367 48.595 56.304 50.182 58.177 51.602 C 60.057 53.029 63.357 54.499 68.077 56.012 C 72.79 57.525 76.664 59.159 79.697 60.912 C 87.07 65.159 90.757 71.019 90.757 78.492 C 90.757 84.459 88.507 89.145 84.007 92.552 C 79.507 95.959 73.337 97.662 65.497 97.662 C 59.964 97.662 54.954 96.669 50.467 94.682 C 45.987 92.695 42.614 89.975 40.347 86.522 C 38.08 83.069 36.947 79.092 36.947 74.592 L 53.447 74.592 C 53.447 78.252 54.394 80.949 56.287 82.682 C 58.174 84.415 61.244 85.282 65.497 85.282 C 68.217 85.282 70.364 84.695 71.937 83.522 C 73.517 82.355 74.307 80.709 74.307 78.582 Z" transform="matrix(1, 0, 0, 1, 0, 0)" style="fill: rgb(255, 255, 255); white-space: pre;"/>
</svg>