<svg width="32" height="16" viewBox="0 0 200 100" xmlns="http://www.w3.org/2000/svg">
  <rect style="fill: rgb(252, 52, 52);" width="200" height="100" rx="30" ry="30"/>
  <path d="M 174.716 167.266 L 174.716 178.946 L 152.846 178.946 L 152.846 207.366 L 138.776 207.366 L 138.776 137.696 L 177.346 137.696 L 177.346 149.416 L 152.846 149.416 L 152.846 167.266 L 174.716 167.266 ZM 213.184 207.366 L 209.454 193.106 L 190.264 193.106 L 186.524 207.366 L 171.644 207.366 L 193.424 137.696 L 206.294 137.696 L 228.204 207.366 L 213.184 207.366 Z M 199.834 156.546 L 193.324 181.386 L 206.344 181.386 L 199.834 156.546 ZM 249.404 137.696 L 249.404 207.366 L 235.334 207.366 L 235.334 137.696 L 249.404 137.696 ZM 275.293 137.696 L 275.293 195.686 L 299.983 195.686 L 299.983 207.366 L 261.223 207.366 L 261.223 137.696 L 275.293 137.696 Z" transform="matrix(0.6624130010604858, 0, 0, 0.64621901512146, -44.30252456665039, -62.2906494140625)" style="fill: rgb(255, 255, 255); white-space: pre;"/>
</svg>